<svg viewBox="0 0 24 24" width="48" height="48" xmlns="http://www.w3.org/2000/svg" fill="none">
  <path d="M12 15a3 3 0 1 0 0-6 3 3 0 0 0 0 6Z" stroke="#22d3ee" stroke-width="1.5"/>
  <path d="M19.4 15a1.65 1.65 0 0 0 .33 1.82l.06.06a2 2 0 0 1 0 2.83 2 2 0 0 1-2.83 0l-.06-.06a1.65 1.65 0 0 0-1.82-.33 1.65 1.65 0 0 0-1 1.51V21a2 2 0 0 1-2 2 2 2 0 0 1-2-2v-.09A1.65 1.65 0 0 0 9 19.4a1.65 1.65 0 0 0-1.82.33l-.06.06a2 2 0 0 1-2.83 0 2 2 0 0 1 0-2.83l.06-.06a1.65 1.65 0 0 0 .33-1.82 1.65 1.65 0 0 0-1.51-1H3a2 2 0 0 1-2-2 2 2 0 0 1 2-2h.09A1.65 1.65 0 0 0 4.6 9a1.65 1.65 0 0 0-.33-1.82l-.06-.06a2 2 0 0 1 0-2.83 2 2 0 0 1 2.83 0l.06.06a1.65 1.65 0 0 0 1.82.33H9a1.65 1.65 0 0 0 1-1.51V3a2 2 0 0 1 2-2 2 2 0 0 1 2 2v.09a1.65 1.65 0 0 0 1 1.51 1.65 1.65 0 0 0 1.82-.33l.06-.06a2 2 0 0 1 2.83 0 2 2 0 0 1 0 2.83l-.06.06a1.65 1.65 0 0 0-.33 1.82V9a1.65 1.65 0 0 0 1.51 1H21a2 2 0 0 1 2 2 2 2 0 0 1-2 2h-.09a1.65 1.65 0 0 0-1.51 1Z"
        stroke="#22d3ee" stroke-width="1.2" stroke-linecap="round" stroke-linejoin="round"/>

  <circle cx="12" cy="12" r="1.5" fill="#8b5cf6">
    <animate attributeName="opacity" values="1;0.3;1" dur="1.5s" repeatCount="indefinite"/>
  </circle>

  <circle cx="12" cy="12" r="5" stroke="#8b5cf6" stroke-width="1" stroke-dasharray="2 4" opacity="0.6">
    <animateTransform attributeName="transform" type="rotate" from="0 12 12" to="360 12 12" dur="10s" repeatCount="indefinite"/>
  </circle>
</svg>
